<?xml version="1.0" standalone="no"?>
<!DOCTYPE svg PUBLIC "-//W3C//DTD SVG 20010904//EN"
 "http://www.w3.org/TR/2001/REC-SVG-20010904/DTD/svg10.dtd">
<svg version="1.0" xmlns="http://www.w3.org/2000/svg"
 width="170.000000pt" height="32.000000pt" viewBox="0 0 900.000000 192.000000"
 preserveAspectRatio="xMidYMid meet">
<metadata>
Created by potrace 1.10, written by Peter Selinger 2001-2011
</metadata>
<g transform="translate(0.000000,192.000000) scale(0.100000,-0.100000)"
fill="#000000" stroke="none">
<path d="M1733 1908 c1 -7 -20 -17 -53 -24 -172 -38 -316 -118 -454 -252 -173
-169 -267 -384 -280 -647 -9 -174 -31 -291 -71 -380 -8 -16 -22 -48 -32 -70
-60 -131 -193 -281 -328 -369 -97 -63 -157 -92 -259 -122 -16 -5 -30 -13 -30
-19 -1 -10 8496 -20 8523 -10 20 8 1 25 -40 35 -56 14 -100 33 -183 78 -169
92 -314 246 -398 424 -4 10 -13 28 -19 39 -38 74 -67 230 -75 394 -5 123 -11
154 -51 285 -51 162 -181 338 -336 456 -96 72 -252 142 -354 159 -27 4 -43 12
-43 21 0 12 -390 14 -2760 14 -2162 0 -2759 -3 -2757 -12z"/>
</g>
</svg>
